<?xml version="1.0" encoding="utf-8"?>
<!-- Generator: Adobe Illustrator 24.3.0, SVG Export Plug-In . SVG Version: 6.00 Build 0)  -->
<svg version="1.1" id="Layer_1" xmlns="http://www.w3.org/2000/svg" xmlns:xlink="http://www.w3.org/1999/xlink" x="0px" y="0px"
	 viewBox="0 0 80 80" enable-background="new 0 0 80 80" xml:space="preserve">
<g>
	<path fill="#FDDC85" d="M40.002,62.138c-3.623-2.816-17.836-15.236-18.479-37.215c0.006,0,0.012,0,0.018,0
		c9.159,0,15.945-4.822,18.46-6.916c2.516,2.094,9.303,6.916,18.46,6.916c0.006,0,0.012,0,0.018,0
		C57.835,46.949,43.629,59.33,40.002,62.138z"/>
	<path fill="#FFBD66" d="M58.46,23.423C47.497,23.423,40,16,40,16s-7.496,7.423-18.46,7.423c-0.505,0-1.02-0.016-1.54-0.049
		C20,50.642,40,64,40,64s20-13.357,20-40.625C59.479,23.407,58.967,23.423,58.46,23.423z M40.013,60.23
		c-4.344-3.605-15.81-14.853-16.925-33.85c7.866-0.443,13.9-4.168,16.912-6.462c3.013,2.294,9.049,6.019,16.914,6.462
		C55.812,45.519,44.398,56.638,40.013,60.23z"/>
	<path fill="#59C5EF" d="M20.241,55.343c0.24-1.617,0.524-3.242,0.848-4.851l0.082-0.41l-0.307-0.287
		c-1.122-1.041-2.288-2.049-3.479-3.006c7.229-3.572,14.832-5.383,22.614-5.383s15.385,1.811,22.614,5.383
		c-1.19,0.957-2.356,1.965-3.479,3.006l-0.307,0.287l0.082,0.41c0.324,1.609,0.608,3.234,0.848,4.851
		C53.438,52.285,46.798,50.736,40,50.736C33.203,50.736,26.562,52.285,20.241,55.343z"/>
	<path fill="#2BA0BF" d="M64,46.65c-7.683-3.996-15.842-5.994-24-5.994l0,0c-8.158,0-16.316,1.998-24,5.994
		c1.511,1.168,2.962,2.4,4.354,3.693c-0.424,2.107-0.775,4.213-1.054,6.312c6.627-3.447,13.664-5.17,20.7-5.17
		s14.073,1.723,20.7,5.17c-0.279-2.1-0.63-4.205-1.054-6.312C61.038,49.051,62.489,47.818,64,46.65z M40,49.986
		c-6.453,0-12.765,1.371-18.801,4.084c0.188-1.146,0.396-2.293,0.624-3.43l0.166-0.824l-0.615-0.57
		c-0.845-0.785-1.715-1.553-2.603-2.293c6.81-3.186,13.94-4.797,21.229-4.797c7.289,0,14.419,1.613,21.228,4.797
		c-0.887,0.74-1.757,1.508-2.602,2.293l-0.615,0.57l0.165,0.824c0.229,1.137,0.438,2.283,0.625,3.43
		C52.765,51.357,46.453,49.986,40,49.986z"/>
	<polygon fill="#FFBD66" points="40,24.663 42.163,29.046 47,29.749 43.5,33.161 44.326,37.978 40,35.705 35.674,37.978 
		36.5,33.161 33,29.749 37.837,29.046 	"/>
</g>
</svg>
